<?xml version="1.0" encoding="UTF-8"?>
<svg version="1.1" xmlns="http://www.w3.org/2000/svg" width="151" height="45">
<path d="M0 0 C4.40848053 0.48983117 6.01100783 1.82419582 9 5 C10.3303125 5.7425 10.3303125 5.7425 11.6875 6.5 C14 8 14 8 14.8125 10.1875 C14.874375 10.785625 14.93625 11.38375 15 12 C15.969375 11.979375 16.93875 11.95875 17.9375 11.9375 C21 12 21 12 22 13 C22.23828125 15.14453125 22.23828125 15.14453125 22.3125 17.8125 C22.36857422 19.12154297 22.36857422 19.12154297 22.42578125 20.45703125 C21.84901346 23.90176366 20.71607566 24.82626473 18 27 C15.68235712 28.52645847 13.29910298 29.90049937 10.875 31.25 C10.24207031 31.61351563 9.60914062 31.97703125 8.95703125 32.3515625 C4.2675047 35 4.2675047 35 2 35 C1.67 36.32 1.34 37.64 1 39 C-0.65 38.67 -2.3 38.34 -4 38 C-4 37.01 -4 36.02 -4 35 C-4.680625 34.7525 -5.36125 34.505 -6.0625 34.25 C-15.21028278 30.35732648 -15.21028278 30.35732648 -18 25.5625 C-19.05285951 21.811688 -19.01617183 20.64128241 -18 17 C-17.88698667 15.31306938 -17.78374393 13.62547039 -17.6875 11.9375 C-17.36788954 8.5283218 -17.19140587 7.26158803 -15.125 4.4375 C-13 3 -13 3 -10 2 C-10 2.99 -10 3.98 -10 5 C-10.639375 5.37125 -11.27875 5.7425 -11.9375 6.125 C-14.8805234 8.80047582 -14.6522672 11.29480765 -14.921875 15.13671875 C-14.94765625 15.75160156 -14.9734375 16.36648437 -15 17 C-14.34 17 -13.68 17 -13 17 C-12.77570312 17.59554688 -12.55140625 18.19109375 -12.3203125 18.8046875 C-10.61190792 21.64528919 -8.76834614 22.55055808 -5.875 24.125 C-4.21971298 25.03001528 -2.58482221 25.97659082 -1 27 C-1 27.66 -1 28.32 -1 29 C-5.9723422 27.50829734 -10.41845739 25.39542583 -15 23 C-12.91731592 28.184554 -8.92848286 29.85900659 -4 32 C0.49325439 33.05161273 3.33864623 31.55447114 7.3125 29.5 C10.85444698 27.31508252 10.85444698 27.31508252 12.86328125 23.8203125 C13.20926157 21.39298244 13.20926157 21.39298244 13 18 C12.33613281 18.33773438 11.67226563 18.67546875 10.98828125 19.0234375 C10.10527344 19.46945313 9.22226562 19.91546875 8.3125 20.375 C7.44238281 20.81585937 6.57226562 21.25671875 5.67578125 21.7109375 C3.15227201 22.92664268 0.61262468 23.99260958 -2 25 C-2 24.01 -2 23.02 -2 22 C-1.24074219 21.62488281 -0.48148438 21.24976562 0.30078125 20.86328125 C1.79158203 20.09564453 1.79158203 20.09564453 3.3125 19.3125 C4.29863281 18.81363281 5.28476562 18.31476562 6.30078125 17.80078125 C9.24721209 15.83507269 10.4341749 14.13699431 12 11 C7.97117956 7.77694365 5.17700536 6.32958592 -0.0390625 6.609375 C-3.35419553 7.26976007 -5.46989603 8.83133945 -8 11 C-9.38868516 13.10039331 -9.38868516 13.10039331 -10 15 C-11 14 -11 14 -11.5 11.75 C-10.90130953 8.45720244 -10.24876131 8.09816436 -7.625 6.1875 C-4.35384615 4 -4.35384615 4 -2 4 C-1.34 2.68 -0.68 1.36 0 0 Z M1 2 C1 2.66 1 3.32 1 4 C1.66 3.67 2.32 3.34 3 3 C2.34 2.67 1.68 2.34 1 2 Z M13 14 C14 16 14 16 14 16 Z M17 14 C14.67409146 17.63423209 14.83734167 20.77088331 15 25 C17.6450037 24.08216876 17.6450037 24.08216876 20 22 C20.46837899 19.20625708 20.23424505 16.85778964 20 14 C19.01 14 18.02 14 17 14 Z M-17 19 C-17 19.66 -17 20.32 -17 21 C-16.34 21 -15.68 21 -15 21 C-15 20.34 -15 19.68 -15 19 C-15.66 19 -16.32 19 -17 19 Z " fill="#32BEC1" transform="translate(22,3)"/>
<path d="M0 0 C1.91541138 -0.10841951 3.83259773 -0.18578079 5.75 -0.25 C6.81734375 -0.29640625 7.8846875 -0.3428125 8.984375 -0.390625 C12 0 12 0 14.390625 1.828125 C16 4 16 4 16 7 C17.65 7 19.3 7 21 7 C20.38813838 13.48573314 20.38813838 13.48573314 18.70776367 15.7121582 C16.61781929 17.28820632 15.58015371 17.35143204 12.98828125 17.29296875 C12.23095703 17.28330078 11.47363281 17.27363281 10.69335938 17.26367188 C9.90767578 17.23853516 9.12199219 17.21339844 8.3125 17.1875 C7.11657227 17.16719727 7.11657227 17.16719727 5.89648438 17.14648438 C3.93070033 17.11117089 1.96526418 17.05736447 0 17 C0 13.7 0 10.4 0 7 C0.66 7 1.32 7 2 7 C2 9.31 2 11.62 2 14 C7.445 13.505 7.445 13.505 13 13 C13 12.01 13 11.02 13 10 C10.36 10 7.72 10 5 10 C5 9.01 5 8.02 5 7 C7.64 7 10.28 7 13 7 C12.34 6.01 11.68 5.02 11 4 C8.3443272 3.41651248 8.3443272 3.41651248 5.375 3.3125 C4.37210937 3.24675781 3.36921875 3.18101563 2.3359375 3.11328125 C1.56507812 3.07589844 0.79421875 3.03851562 0 3 C0 2.01 0 1.02 0 0 Z M16 10 C16.33 10.99 16.66 11.98 17 13 C17.33 12.01 17.66 11.02 18 10 C17.34 10 16.68 10 16 10 Z " fill="#32BEC1" transform="translate(103,14)"/>
<path d="M0 0 C1.1240625 0.0309375 2.248125 0.061875 3.40625 0.09375 C4.5303125 0.1040625 5.654375 0.114375 6.8125 0.125 C10.17526742 0.63451021 11.63994329 1.06594637 13.90625 3.59375 C14.4375 6.1875 14.4375 6.1875 14.40625 9.09375 C14.4165625 10.0528125 14.426875 11.011875 14.4375 12 C13.90625 14.59375 13.90625 14.59375 12.28125 16.40625 C9.20277928 17.94548536 6.84105926 18.06223799 3.40625 18.09375 C1.72015625 18.14015625 1.72015625 18.14015625 0 18.1875 C-3.09375 17.59375 -3.09375 17.59375 -5.46875 15.28125 C-7.60795385 11.74333594 -7.67548984 9.6659289 -7.09375 5.59375 C-5.00697528 2.14254566 -4.02707008 0.77287203 0 0 Z M-4.09375 5.59375 C-4.42708333 9.09375 -4.42708333 9.09375 -4.09375 12.59375 C-1.39296247 15.29453753 0.14660172 14.89269358 3.90625 14.90625 C5.515 14.93138672 5.515 14.93138672 7.15625 14.95703125 C8.5175 14.77720703 8.5175 14.77720703 9.90625 14.59375 C12.29423682 11.68789313 12.29423682 11.68789313 11.59375 7.96875 C11.26511877 4.76870688 11.26511877 4.76870688 9.90625 3.59375 C7.93005553 3.46860072 5.94886827 3.4180224 3.96875 3.40625 C2.88722656 3.39207031 1.80570313 3.37789062 0.69140625 3.36328125 C-2.23419315 3.30326969 -2.23419315 3.30326969 -4.09375 5.59375 Z " fill="#32BEC1" transform="translate(134.09375,13.40625)"/>
<path d="M0 0 C1.13566406 -0.00773438 2.27132812 -0.01546875 3.44140625 -0.0234375 C6.4375 0.375 6.4375 0.375 8.3203125 1.64453125 C10.38023877 4.83525621 9.73225342 7.66110689 9.4375 11.375 C7.4375 13.375 7.4375 13.375 4.3984375 13.5703125 C3.21507813 13.54710937 2.03171875 13.52390625 0.8125 13.5 C-0.37601563 13.48195313 -1.56453125 13.46390625 -2.7890625 13.4453125 C-3.70429687 13.42210937 -4.61953125 13.39890625 -5.5625 13.375 C-5.5625 12.715 -5.5625 12.055 -5.5625 11.375 C0.3775 10.88 0.3775 10.88 6.4375 10.375 C6.4375 8.725 6.4375 7.075 6.4375 5.375 C5.35197634 4.06237429 5.35197634 4.06237429 2.71484375 4.27734375 C1.61269531 4.28894531 0.51054688 4.30054688 -0.625 4.3125 C-1.72972656 4.32152344 -2.83445312 4.33054687 -3.97265625 4.33984375 C-4.82730469 4.35144531 -5.68195312 4.36304688 -6.5625 4.375 C-6.8925 5.035 -7.2225 5.695 -7.5625 6.375 C-5.2525 6.375 -2.9425 6.375 -0.5625 6.375 C-0.5625 7.035 -0.5625 7.695 -0.5625 8.375 C-3.2025 8.375 -5.8425 8.375 -8.5625 8.375 C-8.5625 11.345 -8.5625 14.315 -8.5625 17.375 C-9.2225 17.375 -9.8825 17.375 -10.5625 17.375 C-10.67044277 15.10520335 -10.74806176 12.83394804 -10.8125 10.5625 C-10.85890625 9.29792969 -10.9053125 8.03335937 -10.953125 6.73046875 C-10.5625 3.375 -10.5625 3.375 -8.95703125 1.44921875 C-5.84555415 0.0533685 -3.4044187 -0.02323835 0 0 Z " fill="#32BEC1" transform="translate(64.5625,13.625)"/>
<path d="M0 0 C1.14210938 -0.03738281 2.28421875 -0.07476562 3.4609375 -0.11328125 C6.625 0.3125 6.625 0.3125 9.0234375 1.91015625 C11.16198376 5.11797564 11.02780604 7.24234891 10.875 11.0625 C10.83890625 12.23296875 10.8028125 13.4034375 10.765625 14.609375 C10.69601563 15.94742187 10.69601563 15.94742187 10.625 17.3125 C9.635 17.3125 8.645 17.3125 7.625 17.3125 C7.13 10.8775 7.13 10.8775 6.625 4.3125 C4.665625 4.291875 2.70625 4.27125 0.6875 4.25 C-0.96572266 4.23259766 -0.96572266 4.23259766 -2.65234375 4.21484375 C-5.28947634 3.99987429 -5.28947634 3.99987429 -6.375 5.3125 C-6.60927778 7.32844582 -6.78836124 9.350974 -6.9375 11.375 C-7.06318359 13.03208984 -7.06318359 13.03208984 -7.19140625 14.72265625 C-7.25199219 15.57730469 -7.31257813 16.43195312 -7.375 17.3125 C-8.365 17.3125 -9.355 17.3125 -10.375 17.3125 C-10.42923638 15.39614783 -10.46789963 13.47935075 -10.5 11.5625 C-10.52320312 10.49515625 -10.54640625 9.4278125 -10.5703125 8.328125 C-10.37822356 5.36227172 -10.01078192 3.76045336 -8.375 1.3125 C-5.56292765 -0.09353618 -3.13490534 0.06692495 0 0 Z " fill="#32BEC1" transform="translate(88.375,13.6875)"/>
<path d="M0 0 C3.63 0 7.26 0 11 0 C11 0.99 11 1.98 11 3 C7.37 3 3.74 3 0 3 C0 2.01 0 1.02 0 0 Z " fill="#32BEC1" transform="translate(83,21)"/>
<path d="M0 0 C3.63 0 7.26 0 11 0 C11 0.66 11 1.32 11 2 C7.37 2 3.74 2 0 2 C0 1.34 0 0.68 0 0 Z " fill="#32BEC1" transform="translate(132,18)"/>
</svg>
